<svg id="Capa_1" data-name="Capa 1" xmlns="http://www.w3.org/2000/svg" viewBox="0 0 512 424.12"><path d="M278.4 307.32a116.8 116.8 0 1 0 220.3-54.16L419.09 89.67h13.35A13.52 13.52 0 0 0 446 76.15V53.62a13.52 13.52 0 0 0-13.56-13.52H330.78C328.29 17.73 294.94 0 254.14 0S180 17.73 177.49 40.1H75.83a13.52 13.52 0 0 0-13.51 13.52v22.53a13.52 13.52 0 0 0 13.51 13.52h17.08L13.3 253.16a116.8 116.8 0 0 0 186.08 136.75 116.76 116.76 0 0 0 21-136.74l-79.69-163.5h230.68L291.7 253.16a117.12 117.12 0 0 0-13.3 54.16zm-87.13-39.73l.22.49a83.38 83.38 0 0 1 9.67 39.29H32.43a83.38 83.38 0 0 1 9.67-39.29l.11-.22L116.8 114.8zm129.23.49l.11-.22L395.2 114.8l74.48 152.85.22.49a83.38 83.38 0 0 1 9.67 39.29H310.83a83.28 83.28 0 0 1 9.68-39.35z" fill="#84b735"/></svg>