<svg xmlns="http://www.w3.org/2000/svg" viewBox="0 0 1000 1000"><path class="cls-1" d="M34.76 14.59c-3.83 4.34-4.34 19.65-4.34 169.46 0 156.19.26 164.86 4.59 168.69 4.34 3.83 16.08 4.34 117.4 4.34h112.8v43.38H10v40.84h40.84V990h40.84V522.96H622.5v385.36h285.84V990h40.84V441.3H990v-40.84H303.49v-43.38h114.33c107.7 0 114.84-.25 118.67-4.59 3.83-4.34 4.34-19.65 4.34-169.46 0-156.19-.25-164.86-4.59-168.69C531.9 10.26 510.72 10 285.11 10c-235.3 0-246.53.26-250.35 4.59zm485.66 148.54v132.7H50.83V30.41h469.58v132.72zm102.08 287.1v8.93H91.67V441.3H622.5v8.93zm285.83 88.05v96.98h-245V441.3h245v96.98zm0 234.79v96.98h-245V676.09h245v96.98z"/><path d="M683.75 538.28v76.56h204.16V461.72H683.75v76.56zm116.12-14.04c12.76 12.51 3.83 34.46-14.04 34.46-10.46 0-20.42-9.95-20.42-20.42s9.96-20.42 20.42-20.42c4.85.01 10.21 2.3 14.04 6.38zM683.75 773.07v76.56h204.16V696.51H683.75v76.56zm116.63-14.8c8.17 7.66 7.91 20.67-.51 28.84-18.38 18.63-45.43-7.15-29.09-27.82 6.89-8.67 20.92-9.19 29.6-1.02zM743.21 40.63c-3.57 1.53-9.7 9.95-15.82 22.71L717.18 83.5l-10.97-2.55c-36.24-8.42-79.63 10.97-96.98 43.13l-6.89 12.25L696 174.61c51.55 21.18 94.17 38.28 94.68 38.28 3.83 0 8.16-25.01 7.14-41.09-1.79-24.5-10.97-43.13-30.62-61.25-9.44-8.93-13.78-14.29-11.48-15.06 2.81-1.02 97.49 46.96 116.37 58.95l5.62 3.57v103.37c0 115.1 2.04 103.62-18.89 107.19-5.36.77-16.08 4.34-23.99 7.91-7.66 3.32-16.59 6.13-19.91 6.13-6.38 0-14.55 6.89-12.51 10.46 1.79 2.81 168.95 3.06 170.74.26 2.55-4.08-3.06-8.68-12.76-10.72-5.62-1.28-17.86-5.1-27.82-8.68-9.7-3.32-22.2-7.15-27.31-7.91l-9.7-1.53V142.97l-64.82-33.18-65.08-33.43 1.53-13.53c1.28-12.76.77-14.04-5.62-19.14-7.64-6.13-9.94-6.38-18.36-3.06z"/></svg>