<svg id="Capa_1" data-name="Capa 1" xmlns="http://www.w3.org/2000/svg" viewBox="0 0 512 424.12"><defs><style>.cls-1{fill:#84b735;}</style></defs><title>веталь два</title><path class="cls-1" d="M278.4,307.32a116.8,116.8,0,1,0,220.3-54.16L419.09,89.67h13.35A13.52,13.52,0,0,0,446,76.15V53.62A13.52,13.52,0,0,0,432.44,40.1H330.78C328.29,17.73,294.94,0,254.14,0S180,17.73,177.49,40.1H75.83A13.52,13.52,0,0,0,62.32,53.62V76.15A13.52,13.52,0,0,0,75.83,89.67H92.91L13.3,253.16A116.8,116.8,0,0,0,199.38,389.91a116.76,116.76,0,0,0,21-136.74L140.69,89.67H371.37L291.7,253.16A117.12,117.12,0,0,0,278.4,307.32Zm-87.13-39.73.22.49a83.38,83.38,0,0,1,9.67,39.29H32.43a83.38,83.38,0,0,1,9.67-39.29l.11-.22L116.8,114.8Zm129.23.49.11-.22L395.2,114.8l74.48,152.85.22.49a83.38,83.38,0,0,1,9.67,39.29H310.83A83.28,83.28,0,0,1,320.51,268.08Z"/></svg>