<svg xmlns="http://www.w3.org/2000/svg" xmlns:xlink="http://www.w3.org/1999/xlink"><symbol id="office" viewBox="0 0 1000 1000">

<g><g transform="translate(0.000000,511.000000) scale(0.100000,-0.100000)"><path d="M347.6,4964.1c-38.3-43.4-43.4-196.5-43.4-1694.6c0-1561.9,2.6-1648.6,45.9-1686.9c43.4-38.3,160.8-43.4,1174-43.4h1128v-216.9v-216.9H1376H100V901.1V697h204.2h204.2v-2743.5V-4790h204.2h204.2v2335.2v2335.2h2654.2H6225v-1926.8v-1926.8h1429.2h1429.2v-408.3V-4790h204.2h204.2v2743.5V697h204.2H9900v204.2v204.2H6467.4H3034.9v216.9v216.9h1143.3c1077,0,1148.4,2.5,1186.7,45.9c38.3,43.4,43.4,196.5,43.4,1694.6c0,1561.9-2.5,1648.6-45.9,1686.9c-43.4,40.8-255.2,43.4-2511.3,43.4C498.1,5010,385.8,5007.4,347.6,4964.1z M5204.2,3478.7V2151.7H2856.2H508.3v1327.1v1327.1h2347.9h2347.9V3478.7z M6225,607.7v-89.3H3570.8H916.7v89.3V697h2654.2H6225V607.7z M9083.3-272.8v-969.8h-1225h-1225v969.8V697h1225h1225V-272.8z M9083.3-2620.7v-969.8h-1225h-1225v969.8v969.8h1225h1225V-2620.7z"/><path d="M6837.5-272.8v-765.6h1020.8h1020.8v765.6v765.6H7858.3H6837.5V-272.8z M7998.7-132.4C8126.3-257.5,8037-477,7858.3-477c-104.6,0-204.2,99.5-204.2,204.2s99.6,204.2,204.2,204.2C7906.8-68.7,7960.4-91.6,7998.7-132.4z"/><path d="M6837.5-2620.7v-765.6h1020.8h1020.8v765.6v765.6H7858.3H6837.5V-2620.7z M8003.8-2472.7c81.7-76.6,79.1-206.7-5.1-288.4c-183.8-186.3-454.3,71.5-290.9,278.2C7776.7-2396.2,7917-2391,8003.8-2472.7z"/><path d="M7432.1,4703.7c-35.7-15.3-97-99.5-158.2-227.1L7171.8,4275l-109.7,25.5c-362.4,84.2-796.3-109.7-969.8-431.3l-68.9-122.5l936.6-382.8c515.5-211.8,941.7-382.8,946.8-382.8c38.3,0,81.6,250.1,71.4,410.9c-17.9,245-109.7,431.3-306.2,612.5c-94.4,89.3-137.8,142.9-114.8,150.6c28.1,10.2,974.9-469.6,1163.7-589.5l56.2-35.7V2496.2c0-1151,20.4-1036.2-188.9-1071.9c-53.6-7.7-160.8-43.4-239.9-79.1c-76.6-33.2-165.9-61.3-199.1-61.3c-63.8,0-145.5-68.9-125.1-104.6c17.9-28.1,1689.5-30.6,1707.4-2.6c25.5,40.8-30.6,86.8-127.6,107.2c-56.2,12.8-178.6,51-278.2,86.8c-97,33.2-222,71.5-273.1,79.1l-97,15.3v1107.6v1107.6l-648.2,331.8l-650.8,334.3l15.3,135.3c12.8,127.6,7.7,140.4-56.2,191.4C7539.3,4734.4,7516.3,4736.9,7432.1,4703.7z"/></g></g>
</symbol></svg>