<svg xmlns="http://www.w3.org/2000/svg" id="Layer_1" viewBox="0 0 512 512" width="512" height="512"><path d="M435.192 53.723c-3.099-3.162-8.177-3.215-11.337-.112a8.014 8.014 0 0 0-.112 11.337c30.048 30.654 46.597 71.181 46.597 114.114v76.97c0 89.893-73.133 163.027-163.027 163.027h-94.074a8.025 8.025 0 0 0-5.67 2.348l-63.282 63.283v-71.86a8.018 8.018 0 0 0-4.807-7.346c-59.424-25.966-97.82-84.629-97.82-149.452v-76.97c0-89.893 73.133-163.027 163.027-163.027h102.627c32.038 0 63.044 9.286 89.665 26.85a8.018 8.018 0 1 0 8.832-13.384C376.558 10.202 342.5 0 307.313 0H204.686C105.952 0 25.624 80.328 25.624 179.062v76.97c0 69.431 40.108 132.43 102.627 161.96v86.055c0 6.976 8.735 10.619 13.688 5.67l74.621-74.622h90.754c98.734 0 179.062-80.328 179.062-179.062v-76.97c-.001-47.157-18.178-91.671-51.184-125.34z" data-original="#000000" class="active-path" data-old_color="#000000" fill="#FFF"/><path d="M384.591 318.328l-7.69-41.653a8.017 8.017 0 0 0-6.312-6.407l-60.473-12.094a8.024 8.024 0 0 0-7.242 2.193l-24.829 24.83c-41.849-18.68-64.974-41.852-85.344-85.494l24.754-24.753a8.026 8.026 0 0 0 2.193-7.242l-12.094-60.474a8.017 8.017 0 0 0-6.407-6.312l-41.652-7.688a7.975 7.975 0 0 0-3.231.066 59.156 59.156 0 0 0-28.762 15.886c-13.704 13.705-18.939 33.729-15.135 57.904 1.732 11.006 4.306 22.409 7.651 33.892 1.24 4.253 5.697 6.689 9.941 5.456a8.019 8.019 0 0 0 5.456-9.941c-3.156-10.832-5.58-21.565-7.206-31.901-3.016-19.172.561-34 10.634-44.073a43.14 43.14 0 0 1 19.438-11.209l34.616 6.391 10.188 50.94-25.656 25.655a8.02 8.02 0 0 0-1.652 8.938c23.323 52.231 50.684 79.571 100.95 100.87a8.02 8.02 0 0 0 8.798-1.713l25.655-25.656 50.939 10.188 6.392 34.616a43.166 43.166 0 0 1-11.208 19.438c-10.076 10.071-24.907 13.649-44.077 10.631-38.326-6.03-91.49-24.637-125.752-58.764l-.494-.493c-15.761-15.824-29.81-37.65-40.625-63.119a8.018 8.018 0 1 0-14.76 6.268c11.609 27.334 26.833 50.906 44.055 68.2l.496.493c36.992 36.846 93.778 56.835 134.587 63.256 5.122.805 10.054 1.206 14.783 1.206 17.591 0 32.319-5.541 43.122-16.342a59.164 59.164 0 0 0 15.885-28.761 7.96 7.96 0 0 0 .068-3.228zm-111.487-172.94a8.017 8.017 0 0 0-8.018 8.018 8.017 8.017 0 0 0 8.018 8.018c19.158 0 34.743 15.585 34.743 34.743 0 4.369 3.649 8.018 8.018 8.018s8.018-3.649 8.018-8.018c0-27.999-22.78-50.779-50.779-50.779z" data-original="#000000" class="active-path" data-old_color="#000000" fill="#FFF"/><path d="M273.103 111.179c-3.144 0-6.318.174-9.432.517a8.02 8.02 0 0 0-7.09 8.849c.486 4.4 4.445 7.563 8.849 7.09a70.084 70.084 0 0 1 7.672-.422c38.02 0 68.952 30.932 68.952 68.952 0 2.56-.142 5.141-.422 7.673a8.02 8.02 0 0 0 7.091 8.85c4.343.469 8.369-2.739 8.849-7.09.343-3.114.517-6.289.517-9.433.002-46.861-38.123-84.986-84.986-84.986z" data-original="#000000" class="active-path" data-old_color="#000000" fill="#FFF"/><path d="M273.104 76.97c-3.044 0-6.124.117-9.158.346-4.415.335-7.724 4.185-7.388 8.601s4.167 7.717 8.601 7.388c2.631-.2 5.305-.3 7.946-.3 56.883 0 103.161 46.278 103.161 103.161 0 8.049-.929 16.06-2.76 23.813-.993 4.2 1.636 8.532 5.81 9.608 4.289 1.106 8.777-1.614 9.794-5.92a119.739 119.739 0 0 0 3.19-27.501c.001-65.724-53.471-119.196-119.196-119.196z" data-original="#000000" class="active-path" data-old_color="#000000" fill="#FFF"/></svg>