<svg xmlns="http://www.w3.org/2000/svg" id="Capa_1" viewBox="0 0 66.271 66.271" width="512" height="512"><path d="M64.521 49.315c-1.581-1.815-8.864-9.108-9.688-9.932-.522-.578-2.482-2.519-5.255-2.519-1.314 0-2.606.445-3.735 1.288-1.407 1.052-3.475 2.883-4.974 4.247-1.937-1.112-4.98-2.953-7.042-4.649-3.55-2.919-6.733-6.729-9.729-11.644l-.316-.595c1.517-1.663 3.354-3.738 4.403-5.145 2.637-3.532.734-7.271-1.247-9.007-.897-.896-8.11-8.098-9.913-9.667A6.76 6.76 0 0 0 12.525 0c-1.321 0-2.296.367-2.564.48l-.892.521C5.176 3.501.332 6.612.066 18.254c-.01 11.395 8.777 22.362 16.181 29.577 7.699 8.429 19.427 18.44 31.689 18.44l.086-.001c11.579-.265 14.689-5.109 17.188-9.003l.273-.426.245-.464c.599-1.42 1.017-4.506-1.207-7.062zm-4.302 4.622l-.058.09c-2.172 3.383-3.887 6.054-12.211 6.245l-.015 3v-3c-10.638 0-21.681-10.369-27.316-16.55l-.125-.129C11.183 34.536 6.059 25.539 6.065 18.326 6.257 9.937 8.929 8.222 12.311 6.05l.061-.039a.898.898 0 0 1 .713.206c1.434 1.249 7.482 7.257 9.692 9.467l.163.151c.249.224.523.636.536.778 0 0-.015.055-.098.166-.907 1.216-2.873 3.466-5.436 6.218l-1.455 1.563 2.353 4.437.086.153c3.365 5.538 6.993 9.868 11.091 13.237 3.676 3.022 9.625 6.206 9.876 6.34l1.892 1.008 1.566-1.462c1.898-1.772 4.632-4.227 6.083-5.311.094-.07.146-.092.147-.096.168.016.572.286.763.496l.183.2c2.21 2.21 8.22 8.259 9.469 9.693a.901.901 0 0 1 .223.682z" data-original="#000000" class="active-path" data-old_color="#67b81d" fill="#67b81d"/></svg>